<?xml version="1.0" standalone="no"?>
<!DOCTYPE svg PUBLIC "-//W3C//DTD SVG 20010904//EN"
 "http://www.w3.org/TR/2001/REC-SVG-20010904/DTD/svg10.dtd">
<svg version="1.0" xmlns="http://www.w3.org/2000/svg"
 width="500.000000pt" height="500.000000pt" viewBox="0 0 500.000000 500.000000"
 preserveAspectRatio="xMidYMid meet">
<metadata>
Created by potrace 1.11, written by Peter Selinger 2001-2013
</metadata>
<g transform="translate(0.000000,500.000000) scale(0.100000,-0.100000)"
fill="#000000" stroke="none">
<path d="M4387 4931 c-19 -43 -117 -184 -138 -199 -10 -7 -19 -19 -19 -26 0
-7 -13 -23 -30 -36 -16 -13 -30 -28 -30 -35 0 -7 -29 -46 -65 -88 -36 -42 -65
-81 -65 -87 0 -5 -4 -10 -8 -10 -5 0 -24 -21 -42 -47 -19 -27 -39 -53 -45 -60
-63 -72 -93 -109 -142 -173 -31 -41 -69 -88 -85 -105 -15 -16 -28 -34 -28 -38
0 -5 -4 -6 -8 -3 -5 3 -16 -8 -26 -25 -9 -16 -21 -29 -27 -29 -5 0 -9 -7 -9
-15 0 -9 -10 -20 -23 -26 -12 -6 -28 -23 -35 -39 -7 -16 -34 -50 -60 -77 -25
-26 -46 -50 -45 -53 1 -4 -22 -31 -50 -62 -29 -30 -70 -81 -92 -111 -22 -31
-46 -56 -52 -57 -7 0 -13 -3 -13 -7 0 -8 -29 -45 -92 -120 -21 -24 -38 -49
-38 -54 0 -5 -12 -22 -27 -38 -16 -15 -37 -41 -48 -56 -11 -16 -40 -50 -65
-75 -25 -25 -51 -57 -59 -72 -8 -15 -35 -50 -61 -78 -25 -27 -45 -52 -43 -54
3 -3 -67 -26 -97 -32 -8 -2 -35 -8 -60 -14 -25 -5 -69 -12 -98 -15 -29 -2 -72
-11 -95 -18 -23 -8 -85 -17 -137 -21 -111 -8 -127 -10 -136 -19 -4 -4 -13 -7
-21 -7 -16 0 -6 23 27 58 11 12 18 22 14 22 -4 0 4 12 18 28 14 15 33 41 41
57 8 17 36 52 61 79 24 27 44 53 43 57 -1 4 15 28 36 53 20 24 37 50 37 55 0
6 4 11 8 11 4 0 25 25 47 55 121 168 218 300 224 305 4 3 22 29 41 58 18 28
36 52 40 52 3 0 13 15 22 33 9 17 23 41 32 52 28 34 240 357 273 415 18 31 44
69 58 85 14 17 25 35 25 41 0 6 7 17 15 24 8 6 14 15 13 18 -3 14 15 42 26 42
14 1 46 64 46 90 0 11 5 20 10 20 6 0 10 5 10 11 0 6 10 25 23 42 13 18 23 39
22 47 -1 8 1 20 4 25 8 14 11 33 15 92 3 46 1 55 -26 82 -29 29 -34 31 -109
31 -72 0 -80 -2 -95 -25 -9 -13 -24 -27 -35 -30 -10 -4 -25 -12 -31 -18 -20
-20 -200 -143 -233 -160 -17 -8 -43 -27 -58 -42 -15 -15 -27 -24 -27 -19 0 4
-6 0 -13 -10 -7 -9 -20 -18 -30 -20 -16 -2 -28 -11 -90 -72 -18 -17 -42 -34
-54 -38 -11 -4 -24 -18 -27 -32 -4 -13 -17 -29 -29 -34 -30 -13 -50 -30 -71
-62 -10 -16 -24 -28 -30 -28 -18 0 -76 -51 -76 -66 0 -8 -7 -14 -15 -14 -9 0
-20 -11 -24 -24 -5 -13 -17 -26 -26 -30 -9 -3 -13 -10 -10 -16 3 -5 2 -10 -3
-10 -5 0 -23 -13 -40 -30 -18 -16 -35 -30 -38 -30 -4 0 -20 -16 -37 -35 -16
-19 -33 -33 -37 -30 -5 3 -13 -9 -19 -25 -5 -17 -17 -30 -26 -30 -9 0 -18 -7
-21 -15 -3 -8 -14 -17 -25 -20 -11 -4 -17 -10 -14 -15 3 -4 -6 -15 -19 -23
-12 -9 -29 -30 -36 -47 -8 -19 -18 -29 -26 -26 -9 3 -16 -4 -20 -19 -4 -16
-13 -25 -25 -25 -10 0 -19 -4 -19 -8 0 -4 -24 -33 -52 -63 -62 -65 -86 -94
-152 -189 -27 -38 -53 -70 -58 -70 -4 0 -8 -6 -8 -13 0 -7 -11 -21 -25 -31
-13 -10 -29 -33 -35 -52 -6 -19 -20 -40 -31 -47 -24 -18 -69 -84 -69 -103 0
-8 -4 -12 -10 -9 -5 3 -12 -7 -16 -22 -4 -15 -17 -38 -30 -49 -12 -12 -25 -39
-29 -60 -3 -22 -9 -52 -13 -69 -10 -38 7 -125 25 -132 7 -3 13 -13 13 -23 0
-20 72 -60 112 -63 13 0 25 -4 28 -7 3 -3 25 -15 50 -28 51 -26 106 -33 238
-33 84 0 114 -9 78 -22 -7 -3 -17 -18 -21 -34 -3 -15 -10 -30 -13 -33 -11 -8
-76 -92 -95 -123 -10 -15 -38 -48 -63 -73 -24 -25 -51 -58 -59 -73 -14 -28
-41 -62 -80 -104 -11 -12 -24 -35 -30 -52 -6 -17 -22 -36 -37 -43 -16 -7 -28
-18 -28 -23 0 -5 -9 -19 -20 -31 -10 -12 -17 -25 -15 -29 3 -4 -4 -10 -15 -14
-11 -4 -18 -10 -16 -14 3 -4 -10 -25 -29 -46 -19 -21 -35 -41 -35 -46 0 -19
-3 -24 -21 -37 -11 -7 -19 -18 -19 -24 0 -7 -15 -26 -33 -44 -37 -36 -56 -60
-98 -124 -54 -82 -79 -115 -123 -162 -25 -25 -51 -59 -60 -75 -8 -15 -40 -55
-70 -88 -31 -33 -59 -69 -62 -80 -4 -11 -20 -33 -36 -50 -19 -20 -28 -38 -26
-55 3 -21 8 -25 37 -26 36 -1 91 21 91 37 0 5 7 9 15 9 8 0 15 4 15 10 0 11
28 45 78 95 17 18 32 35 32 38 0 3 18 25 40 48 22 23 38 45 35 47 -2 2 7 14
20 27 14 12 22 24 19 27 -2 3 14 25 37 49 22 24 53 60 67 79 15 19 29 37 32
40 3 3 6 16 8 29 1 13 26 48 57 78 30 30 55 62 55 71 0 10 9 23 20 30 12 7 18
16 16 21 -3 4 6 19 19 31 14 13 25 28 25 35 0 6 8 18 18 26 33 31 72 81 67 88
-2 4 13 28 34 53 21 26 53 70 72 100 40 62 57 85 82 107 22 19 107 128 107
137 0 9 72 107 85 116 5 4 6 8 1 8 -5 0 3 9 17 20 13 11 28 31 31 46 5 17 12
24 21 20 7 -2 26 4 40 16 20 15 44 21 103 24 73 4 137 10 137 14 0 3 39 10 80
14 58 6 152 21 158 26 1 1 19 3 40 6 41 4 47 -6 18 -35 -11 -11 -27 -33 -35
-49 -8 -16 -22 -32 -30 -35 -8 -3 -23 -21 -32 -38 -9 -18 -32 -46 -50 -63 -19
-16 -34 -35 -34 -41 0 -7 -14 -24 -32 -39 -17 -14 -28 -26 -23 -26 5 0 -3 -12
-17 -27 -14 -16 -39 -49 -57 -75 -29 -43 -36 -50 -57 -47 -4 0 -19 -22 -35
-49 -15 -27 -44 -66 -63 -87 -20 -21 -36 -41 -36 -45 0 -4 -10 -18 -21 -31
-12 -13 -33 -40 -48 -59 -14 -19 -49 -57 -76 -85 -60 -59 -105 -117 -105 -134
0 -7 -11 -23 -25 -37 -14 -14 -25 -28 -25 -32 0 -4 -15 -24 -33 -43 -17 -20
-43 -51 -57 -69 -14 -18 -40 -50 -57 -72 -18 -22 -33 -43 -33 -46 0 -4 -17
-26 -38 -49 -20 -24 -46 -54 -57 -69 -11 -14 -31 -40 -45 -58 -41 -50 -80
-111 -80 -124 0 -7 -4 -12 -9 -12 -5 0 -12 -8 -15 -18 -4 -10 -24 -37 -46 -60
-22 -23 -40 -45 -40 -50 0 -11 -35 -52 -44 -52 -13 0 -66 -65 -66 -81 0 -8
-18 -30 -40 -48 -22 -17 -40 -37 -40 -44 0 -7 -12 -25 -26 -40 -14 -15 -31
-42 -39 -60 -7 -18 -27 -48 -44 -67 -17 -19 -31 -39 -31 -45 0 -5 -15 -26 -33
-46 -17 -21 -41 -50 -52 -65 -11 -16 -36 -46 -55 -68 -19 -23 -39 -47 -45 -54
-5 -7 -17 -21 -26 -30 -8 -9 -43 -54 -78 -98 -58 -76 -62 -85 -59 -128 2 -25
5 -46 8 -47 54 -9 86 0 125 35 12 10 46 33 77 50 52 29 167 104 178 116 3 3
43 33 90 65 95 66 103 73 131 98 10 9 20 16 22 15 1 -2 16 9 32 24 17 15 74
60 127 100 53 41 114 89 135 106 35 29 114 91 187 145 16 12 40 32 55 44 72
61 114 93 121 93 5 0 28 20 52 45 24 24 49 45 56 45 6 0 12 4 12 8 0 4 12 15
28 24 15 10 39 27 53 40 15 13 97 76 184 142 86 65 162 124 168 130 7 6 32 27
57 46 25 19 50 40 55 46 6 6 25 21 44 34 18 13 46 35 61 49 15 14 45 40 65 56
21 17 57 47 79 67 23 21 46 38 52 38 6 0 29 20 51 44 37 40 83 74 83 61 0 -3
16 11 35 32 19 21 35 41 35 46 0 4 9 7 20 7 11 0 20 7 20 15 0 8 7 15 15 15 8
0 15 6 15 13 0 10 27 31 80 61 9 5 22 21 28 35 7 14 30 34 52 44 22 10 38 23
34 28 -3 5 1 12 9 15 8 3 17 14 20 25 3 11 14 19 26 19 12 0 21 4 21 9 0 5 9
13 20 16 11 3 20 11 20 16 0 5 9 19 20 31 10 12 17 25 14 30 -3 4 6 12 20 18
14 5 36 26 49 47 26 41 100 113 116 113 5 0 13 10 16 23 4 12 17 33 29 47 20
23 52 84 86 165 15 35 23 195 10 195 -5 0 -15 12 -22 28 -9 18 -27 32 -58 42
-25 8 -48 19 -52 25 -7 10 -191 11 -293 0 -33 -3 -98 -8 -145 -11 -47 -3 -99
-10 -116 -15 -17 -5 -58 -11 -92 -14 -34 -2 -71 -9 -81 -14 -29 -16 -33 0 -6
25 14 13 25 27 25 32 0 5 18 24 41 43 23 19 50 52 61 74 12 22 26 44 33 50 6
5 29 33 51 60 21 28 42 52 47 53 4 2 7 10 7 17 0 8 6 18 13 22 7 4 26 26 43
48 16 21 36 47 44 56 8 9 33 38 55 64 61 73 75 86 85 80 4 -3 13 10 19 27 6
18 21 44 34 58 23 26 111 131 137 163 8 11 20 24 25 31 6 6 28 34 50 61 21 28
42 52 45 55 5 4 37 43 152 185 9 11 66 83 128 160 61 77 119 149 128 160 9 11
42 52 72 90 30 39 58 75 63 80 43 53 107 146 107 153 0 6 5 12 11 14 6 2 13
24 16 50 l5 46 -37 4 c-32 4 -39 1 -48 -21z m-1066 -159 c-15 -28 -42 -96 -42
-104 1 -10 -39 -83 -64 -122 -11 -17 -31 -51 -45 -77 -59 -110 -71 -129 -79
-129 -5 0 -15 -15 -21 -34 -6 -19 -14 -36 -18 -38 -4 -2 -27 -37 -52 -78 -24
-41 -50 -81 -57 -88 -7 -7 -13 -17 -13 -21 0 -4 -9 -17 -20 -29 -11 -12 -20
-24 -19 -28 1 -3 -20 -36 -47 -72 -27 -37 -48 -70 -47 -73 1 -3 -14 -23 -33
-44 -19 -21 -34 -43 -34 -48 0 -5 -14 -22 -31 -39 -17 -17 -34 -41 -39 -52
-14 -36 -179 -256 -252 -336 -14 -16 -24 -31 -22 -33 3 -2 -8 -18 -24 -34 -15
-17 -33 -42 -40 -57 -6 -14 -16 -26 -22 -26 -5 0 -10 -4 -10 -10 0 -9 -48 -78
-88 -126 -9 -11 -17 -23 -17 -26 0 -3 -16 -25 -35 -49 -19 -24 -45 -59 -57
-79 -12 -19 -23 -30 -23 -25 0 6 -7 -4 -16 -22 -9 -17 -26 -34 -38 -37 -100
-25 -249 -26 -325 -1 -11 3 -35 7 -53 9 -36 4 -65 18 -118 56 -19 14 -37 24
-40 23 -14 -7 -3 95 12 116 10 13 18 29 18 36 0 6 13 26 30 45 16 18 32 42 36
52 3 10 10 18 15 18 5 0 9 7 9 15 0 7 6 18 13 22 8 4 36 42 64 83 28 41 76
102 107 135 31 32 56 65 56 72 0 7 5 13 10 13 6 0 10 4 10 9 0 5 43 53 96 107
52 53 101 109 109 125 8 15 27 33 43 40 17 7 40 33 56 61 15 26 31 48 36 48 9
0 115 98 244 227 46 45 103 97 128 116 25 19 72 62 106 96 34 33 65 61 71 61
5 0 13 9 16 20 3 11 12 20 19 20 11 0 44 35 66 70 5 8 51 41 195 138 39 26 72
50 73 55 2 4 8 5 13 1 5 -3 9 0 9 5 0 6 18 11 39 11 22 0 46 7 55 15 8 8 21
15 28 15 7 0 22 7 32 15 23 18 39 10 27 -13z m339 -1838 c14 -4 28 -7 31 -6 3
0 18 -9 33 -21 36 -30 40 -73 13 -139 -27 -64 -85 -158 -98 -158 -5 0 -9 -6
-9 -13 0 -8 -16 -28 -35 -46 -19 -17 -35 -29 -35 -26 0 3 -76 -70 -169 -162
-200 -200 -330 -320 -337 -313 -3 3 -12 -7 -20 -22 -8 -16 -18 -28 -23 -28 -5
0 -38 -28 -73 -62 -36 -35 -101 -92 -144 -128 -43 -35 -86 -70 -94 -77 -8 -8
-26 -23 -40 -34 -69 -57 -114 -95 -124 -104 -6 -6 -33 -28 -61 -50 -27 -22
-55 -44 -61 -50 -7 -5 -24 -19 -39 -29 -14 -11 -36 -28 -47 -38 -12 -10 -24
-18 -27 -18 -3 0 -17 -10 -31 -23 -25 -22 -161 -128 -203 -157 -43 -29 -272
-214 -275 -222 -2 -4 -8 -8 -13 -8 -10 0 -24 -11 -64 -47 -13 -13 -27 -23 -31
-23 -3 0 -34 -25 -69 -55 -34 -30 -67 -55 -73 -55 -6 0 -12 -3 -14 -7 -4 -10
-95 -83 -103 -83 -3 0 -23 -15 -43 -34 -20 -19 -66 -57 -102 -85 -36 -28 -80
-63 -99 -78 -63 -51 -276 -195 -303 -205 -16 -5 -28 -14 -28 -18 0 -5 -9 -12
-20 -15 -11 -3 -27 -13 -35 -21 -8 -9 -15 -11 -15 -6 0 5 18 26 40 46 22 20
38 36 36 36 -2 0 8 14 22 30 15 17 35 30 44 30 13 0 20 10 25 30 3 17 20 43
38 58 18 16 35 41 39 55 3 15 10 27 15 27 4 0 25 26 47 58 21 31 44 62 50 67
5 6 26 31 45 57 19 26 42 50 52 53 9 4 15 10 12 15 -3 5 3 15 15 22 11 7 20
20 20 29 0 8 15 33 33 55 37 45 67 84 158 204 35 47 69 91 76 98 7 7 20 26 30
42 9 17 26 33 36 36 10 3 21 19 24 36 4 19 14 33 29 39 15 5 24 17 24 29 0 19
39 65 61 72 6 2 11 11 13 20 3 24 45 76 67 83 10 3 21 19 24 35 4 17 12 30 20
30 14 0 65 62 65 79 0 5 8 12 18 15 10 3 18 16 19 28 1 12 8 25 15 29 30 17
65 57 71 80 4 14 17 37 29 51 13 15 37 43 53 63 44 55 67 75 77 69 5 -3 8 -2
7 3 -4 25 3 41 21 46 11 3 20 12 20 21 0 24 112 164 136 171 13 4 25 19 31 38
5 19 19 37 36 45 15 7 30 25 34 40 7 29 100 142 116 142 20 0 57 44 57 67 0
14 6 23 15 23 8 0 15 6 15 13 0 24 60 95 85 101 15 4 27 16 31 31 3 14 10 22
15 19 5 -3 9 -1 9 4 0 5 6 9 13 10 6 0 30 5 52 11 22 5 71 12 109 16 38 3 74
9 80 13 14 8 25 10 106 17 36 4 83 8 105 10 22 2 51 7 65 10 80 20 224 25 280
9z"/>
</g>
</svg>
